<?xml version="1.0"?>
<svg xmlns="http://www.w3.org/2000/svg" id="Layer_1" enable-background="new 0 0 512 512" height="512px" viewBox="0 0 512 512" width="512px" class=""><g><g><g clip-rule="evenodd" fill-rule="evenodd"><path d="m75.334 340.394-56.823 21.287c-2.102 6.727-3.239 13.908-3.239 21.344 0 39.452 32.02 71.44 71.511 71.44 36.224 0 66.142-26.907 70.858-61.818z" fill="#838383" data-original="#626262" class="" data-old_color="#838383" style="fill:#626262"/><path d="m352.77 366.478c-.341 0-.653 0-.966 0-1.278 5.308-1.932 10.842-1.932 16.547 0 39.452 32.02 71.44 71.511 71.44s71.511-31.988 71.511-71.44c0-5.705-.682-11.24-1.932-16.547l-63.954-15.753z" fill="#838383" data-original="#626262" class="" data-old_color="#838383" style="fill:#626262"/><path d="m224.095 269.096-64.494 69.68c2.557 5.904 7.444 23.104-.142 23.019l-4.404-.057c.028.028.028.057.028.085l52.305 17.087c76.199-3.378 49.89-1.731 105.747-53.928l9.092-55.886-48.186-27.191z" fill="#ececec" data-original="#ECECEC" class=""/><path d="m322.228 269.096h-98.133l-20.996 22.65h60.374c15.825 0 15.257-.71 6.222 14.532l-15.797 23.558c6.506 2.044 11.734 7.067 13.922 13.879l34.804-47.712z" fill="#cecece" data-original="#CECECE" class=""/><path d="m88.573 294.47c-35.4-1.476-71.312 15.071-79.211 44.306-2.5 9.281-4.517 23.643 9.148 22.905h39.52 16.365l17.274-22.905z" fill="#fe636e" data-original="#FFB85D" class="" data-old_color="#fe636e" style="fill:#FFB85D"/><path d="m159.573 338.776c-7.444-17.768-21.11-29.802-37.276-36.813l-15.967 29.916 2.358 29.802h6.847 35.685l3.836.057 4.404.057c7.585.085 2.699-17.115.113-23.019z" fill="#fe636e" data-original="#FFB85D" class="" data-old_color="#fe636e" style="fill:#FFB85D"/><path d="m247.194 328.813c-6.165 0-11.734 2.526-15.711 6.585-3.608 3.661-5.938 8.572-6.279 14.021-.284 4.513.796 8.77 2.898 12.403h15.257c9.376 0 12.558-1.731 17.615-8.685l6.847-9.423c-2.927-9.025-11.081-14.901-20.627-14.901z" fill="#838383" data-original="#626262" class="" data-old_color="#838383" style="fill:#626262"/><path d="m436.242 181.449h-26.508c-7.984 0-15.257 3.065-20.74 8.061l-13.495 25.573 13.495 19.953c5.483 4.995 12.757 8.061 20.74 8.061h26.508c5.199 0 9.461-4.257 9.461-9.452v-42.745c0-5.193-4.261-9.451-9.461-9.451z" fill="#fe636e" data-original="#FFB85D" class="" data-old_color="#fe636e" style="fill:#FFB85D"/><path d="m381.323 323.818-7.046-14.702-1.108-2.299c-14.149 8.146-25.428 20.152-31.082 35.763-3.324 9.253-5.966 23.331 9.717 23.898h.966 36.849 12.188l-4.688-9.764z" fill="#fe636e" data-original="#FFB85D" class="" data-old_color="#fe636e" style="fill:#FFB85D"/><path d="m495.565 331.198c-20.456-31.363-60.857-41.893-95.604-34.485l1.676 3.605 5.91 12.602 16.109 34.4 8.978 19.158h20.513 37.815c1.733 0 3.239-.142 4.603-.426 11.734-2.526 9.688-15.185 6.08-23.473-1.761-4.059-3.807-7.834-6.08-11.381z" fill="#fe636e" data-original="#FFB85D" class="" data-old_color="#fe636e" style="fill:#FFB85D"/><path d="m355.753 64.682-37.815-7.039c-4.801-.88-8.864 4.002-8.864 8.884v19.896c0 4.882 3.978 8.855 8.864 8.855h37.815c4.887 0 8.893-3.974 8.893-8.855v-12.886c0-4.882-4.091-7.975-8.893-8.855z" fill="#fe636e" data-original="#FFB85D" class="" data-old_color="#fe636e" style="fill:#FFB85D"/><path d="m194.292 214.686h-119.498c-12.217-.624-17.302-16.746-29.349-16.803l-13.637.057c-9.887-.596-21.479 3.434-21.479 18.875v7.465 24.182c0 11.296 8.126 20.634 23.581 20.634h60.033 35.855 94.297l26.508-27.191-26.508-27.219z" fill="#838383" data-original="#626262" class="" data-old_color="#838383" style="fill:#626262"/><path d="m88.573 294.47c-35.4-1.476-71.312 15.071-79.211 44.306-2.074 7.72-3.807 18.96 3.523 22.082 12.529-25.034 38.44-42.262 68.358-42.262.767 0 1.506.028 2.244.057l1.477-7.039z" fill="#fb2a39" data-original="#FF921D" class="" data-old_color="#fb2a39" style="fill:#FF921D"/><path d="m159.147 337.726c-7.557-17.2-20.996-28.894-36.849-35.762l-3.864 16.973-1.875 8.288c14.518 7.578 26.309 19.698 33.469 34.457h1.193l3.836.057 4.404.057c7.586.085 2.699-17.115.114-23.019-.144-.37-.286-.711-.428-1.051z" fill="#fb2a39" data-original="#FF921D" class="" data-old_color="#fb2a39" style="fill:#FF921D"/><path d="m495.565 331.198c-10.455-16.008-26.11-26.595-43.526-32.13-16.706-5.308-35.06-5.989-52.078-2.356l1.676 3.605.455.937c17.672.341 35.315 5.166 49.947 14.788 8.552 5.648 16.052 12.943 21.934 21.94 2.273 3.519 4.319 7.323 6.08 11.382 2.245 5.166 3.892 12.063 1.932 17.115h8.978c1.733 0 3.239-.142 4.603-.426 11.734-2.526 9.688-15.185 6.08-23.473-1.762-4.06-3.808-7.835-6.081-11.382z" fill="#fb2a39" data-original="#FF921D" class="" data-old_color="#fb2a39" style="fill:#FF921D"/><path d="m373.169 306.817c-6.62 3.803-12.586 8.458-17.672 13.908l4.83 10.019 15.768 32.867 1.392 2.867h12.132 12.188l-4.688-9.764-15.797-32.896-7.046-14.702z" fill="#fb2a39" data-original="#FF921D" class="" data-old_color="#fb2a39" style="fill:#FF921D"/><path d="m436.242 181.449h-16.876c5.199 0 9.461 4.257 9.461 9.451v42.745c0 5.194-4.262 9.452-9.461 9.452h16.876c5.199 0 9.461-4.257 9.461-9.452v-42.745c0-5.193-4.261-9.451-9.461-9.451z" fill="#fb2a39" data-original="#FF921D" class="" data-old_color="#fb2a39" style="fill:#FF921D"/><path d="m199.832 214.686h24.263v54.41h-24.263z" fill="#595959" data-original="#2E2E2E" class="" data-old_color="#595959" style="fill:#2E2E2E"/><path d="m410.757 385.125-8.211-17.087-.739-1.561h-12.188c-2.585 4.967-4.063 10.587-4.063 16.547 0 19.755 16.052 35.791 35.827 35.791 19.774 0 35.798-16.036 35.798-35.791 0-5.96-1.449-11.58-4.034-16.547h-20.513l.71 1.561 1.534 3.292c8.865 18.933-17.614 27.334-24.121 13.795z" fill="#ececec" data-original="#ECECEC" class=""/><path d="m481.985 366.478h-15.228c1.279 5.308 1.932 10.842 1.932 16.547 0 35.337-25.684 64.685-59.408 70.418 3.921.681 7.984 1.022 12.103 1.022 39.492 0 71.511-31.988 71.511-71.44 0-5.705-.682-11.24-1.932-16.547z" fill="#595959" data-original="#2E2E2E" class="" data-old_color="#595959" style="fill:#2E2E2E"/><path d="m364.646 73.537c0-4.882-4.091-7.976-8.893-8.855l-10.683-1.987c2.443 1.76 4.091 4.456 4.091 7.976v14.56c0 5.535-4.006 10.048-8.864 10.048h15.456c4.887 0 8.893-3.974 8.893-8.855z" fill="#fb2a39" data-original="#FF921D" class="" data-old_color="#fb2a39" style="fill:#FF921D"/><path d="m157.641 392.647-22.644.028c-4.233 31.193-28.639 56-59.664 60.881 3.722.596 7.557.908 11.45.908 36.225.001 66.142-26.906 70.858-61.817z" fill="#595959" data-original="#2E2E2E" class="" data-old_color="#595959" style="fill:#2E2E2E"/><path d="m74.396 361.681h-16.365c-4.432 5.96-7.074 13.34-7.074 21.344 0 19.755 16.052 35.791 35.827 35.791 16.422 0 30.286-11.069 34.491-26.141z" fill="#ececec" data-original="#ECECEC" class=""/><path d="m228.101 361.823h-73.017-39.463-6.961l-15.711 10.644-1.392 20.237 29.718-.028 36.366-.028 99.667-.057c3.637 0 15.399 0 25.94-15.611l76.256-99.652v-8.231h-37.276l-19.604 26.907-34.804 47.712-6.847 9.423c-5.057 6.954-8.239 8.685-17.615 8.685h-15.257z" fill="#ffbf00" data-original="#595959" class="" data-old_color="#ffbf00" style="fill:#595959"/><path d="m359.503 220.76c0-40.616-111.855-45.838-135.408-6.074v54.41h98.133 37.276l12.643-25.999z" fill="#fe636e" data-original="#FFB85D" class="" data-old_color="#fe636e" style="fill:#FFB85D"/><path d="m359.503 220.76c0-35.422-85.035-43.908-122.424-19.158 41.111-10.189 97.309.795 97.309 29.603v37.891h25.116v-5.251-43.085z" fill="#fb2a39" data-original="#FF921D" class="" data-old_color="#fb2a39" style="fill:#FF921D"/><path d="m372.147 132.602-49.777-.17c-19.547-.085-19.661 27.361-.256 28.496l37.389 2.185v57.646 43.085 5.251 8.231 1.05l14.774 30.739 7.046 14.702 15.797 32.896 5.427 11.325 8.211 17.087c6.506 13.539 32.986 5.137 24.121-13.794l-1.534-3.292-9.688-20.72-16.109-34.4-5.91-12.602-12.643-27.049v-38.232-45.526-39.168c0-3.122-.739-5.79-1.96-7.947-2.501-5.734-8.24-9.764-14.888-9.793z" fill="#ffd659" data-original="#ECECEC" class="" data-old_color="#ffd659" style="fill:#ECECEC"/><path d="m387.034 142.394c-2.5-5.733-8.239-9.764-14.888-9.792l-13.41-.028c6.591.028 12.302 4.059 14.802 9.764 1.222 2.185 1.96 4.825 1.96 7.947v39.168 45.526 38.232l12.558 26.85.114.199 5.881 12.602 16.109 34.4 9.006 19.215.71 1.533 1.506 3.264c4.347 9.253.227 16.008-5.881 18.903 9.717 5.336 26.735-3.122 19.376-18.846l-1.534-3.292-.71-1.561-8.978-19.158-16.109-34.4-5.455-11.665-.455-.937-1.676-3.605-10.967-23.444v-38.232-45.527-39.168c.001-3.123-.737-5.791-1.959-7.948z" fill="#ffbf00" data-original="#595959" class="" data-old_color="#ffbf00" style="fill:#595959"/><path d="m72.35 371.331c-2.671 15.582 8.978 23.019 19.234 20.861 5.199-1.107 10.029-4.683 12.416-10.927.483-1.249.881-2.64 1.165-4.116 8.211-35.99 16.422-72.008 24.633-108.054h-35.855c-7.188 34.089-14.405 68.177-21.593 102.236z" fill="#ffd659" data-original="#ECECEC" class="" data-old_color="#ffd659" style="fill:#ECECEC"/><path d="m129.798 269.096h-35.855c-3.495 16.519-6.961 33.038-10.455 49.557 11.904.341 23.127 3.378 33.071 8.572 4.403-19.387 8.835-38.744 13.239-58.129z" fill="#ffbf00" data-original="#595959" class="" data-old_color="#ffbf00" style="fill:#595959"/></g><path d="m508.581 339.577c-8.942-20.654-25.179-36.242-46.956-45.078-17.623-7.15-37.742-9.301-57.271-6.236l-7.802-16.675v-23.287c4.188 1.54 8.641 2.354 13.183 2.354h26.508c9.384 0 17.018-7.629 17.018-17.009v-42.745c0-9.379-7.634-17.009-17.018-17.009h-26.508c-4.542 0-8.995.814-13.183 2.353v-25.905c0-4.154-.925-7.961-2.749-11.323-3.127-6.864-9.274-11.759-16.463-13.384l-11.53-26.252c3.881-3.005 6.393-7.689 6.393-12.959v-12.885c0-8.09-6.063-14.636-15.067-16.286l-37.816-7.039c-.007-.001-.014-.002-.021-.004-4.146-.76-8.291.372-11.668 3.188-3.83 3.192-6.116 8.1-6.116 13.13v19.897c0 9.05 7.367 16.412 16.422 16.412h32.88l9.737 22.17-38.152-.131c-.042-.001-.083-.001-.125-.001-14.139 0-21.865 10.417-22.189 20.738-.336 10.713 6.97 22.006 21.585 22.861l30.273 1.77v24.283c-6.005-4.259-13.688-7.741-22.863-10.254-37.246-10.201-89.449-3.072-108.97 22.857h-59.091c-4.174 0-7.558 3.383-7.558 7.557s3.384 7.557 7.558 7.557h55.515v39.295h-86.739-35.855-60.033c-10.034 0-16.024-4.889-16.024-13.077v-31.647c0-3.853.957-6.708 2.845-8.486 2.211-2.082 6.081-3.111 10.622-2.845.162.01.33.018.486.014l13.571-.057c2.918.014 5.525 2.367 9.539 6.204 4.723 4.517 10.6 10.137 19.46 10.589.128.007.257.01.386.01h53.3c4.174 0 7.558-3.383 7.558-7.557s-3.384-7.557-7.558-7.557h-53.07c-2.966-.226-5.632-2.584-9.631-6.408-4.823-4.612-10.826-10.353-19.981-10.395l-13.408.056c-8.703-.472-16.379 1.993-21.637 6.942-3.467 3.264-7.599 9.295-7.599 19.49v31.647c0 16.598 12.805 28.191 31.139 28.191h50.713l-2.154 10.197c-34.399.605-71.571 17.266-80.404 49.961-3.288 12.208-2.654 20.898 1.938 26.568 1.164 1.438 2.86 2.985 5.243 4.135-1.012 5.083-1.531 10.273-1.531 15.512 0 43.559 35.47 78.997 79.069 78.997 37.167 0 69.234-26.158 77.17-61.84l34.181-.035c4.174-.004 7.554-3.391 7.55-7.565-.004-4.171-3.387-7.549-7.558-7.549-.002 0-.005 0-.008 0l-87.539.091c.853-1.956 1.541-4.087 1.986-6.439l2.121-9.304h113.39c.01 0 .02.002.03.002s.02-.002.03-.002h15.219c11.608 0 17.152-2.756 23.722-11.791l41.704-57.219c.039-.055.082-.108.12-.165l17.167-23.553h24.432l-73.258 95.734c-.091.119-.178.24-.262.363-8.293 12.283-16.563 12.283-19.676 12.283h-29.491c-4.174 0-7.558 3.383-7.558 7.557s3.384 7.557 7.558 7.557h29.491c12.817 0 23.607-6.306 32.073-18.747l68.331-89.295 5.728 11.93c-13.457 9.217-23.231 21.539-28.459 35.973-4.093 11.313-3.981 20.167.333 26.316 1.48 2.109 3.892 4.455 7.724 6-.476 3.515-.724 7.092-.724 10.701 0 43.559 35.47 78.997 79.069 78.997s79.069-35.438 79.069-78.997c0-3.448-.236-6.906-.689-10.344 4.708-1.623 7.523-4.437 9.165-6.942 5.987-9.117 1.752-21.339-.342-26.161zm-112.029-146.444c3.871-2.678 8.452-4.126 13.183-4.126h26.508c1.032 0 1.903.868 1.903 1.894v42.745c0 1.026-.871 1.894-1.903 1.894h-26.508c-4.73 0-9.312-1.449-13.183-4.127zm-39.464-106.709c0 .703-.611 1.298-1.335 1.298h-.038c-.036 0-.072-.001-.108 0h-37.669c-.708 0-1.307-.595-1.307-1.298v-19.897c0-.508.271-1.048.508-1.345l37.252 6.934c1.519.278 2.697.993 2.697 1.422zm-338.615 267.701c-.123.001-.246.003-.369.01-1.786.096-2.346-.259-2.346-.26-.44-.435-1.574-3.941.901-13.128 5.793-21.444 31.908-37.174 62.598-38.685l-10.997 52.062h-49.714c-.025 0-.049.001-.073.001zm65.288 45.609c.671.12 1.35.208 2.033.27.616.162 1.26.257 1.927.257h.008l21.423-.022c-5.241 6.771-13.436 11.02-22.369 11.02-15.588 0-28.269-12.666-28.269-28.234 0-4.887 1.257-9.584 3.625-13.786h2.929l-.112.53c-.019.093-.037.185-.053.277-2.892 16.767 7.297 27.627 18.858 29.688zm42.833.487 21.79-.022c-7.59 27.154-32.691 46.709-61.601 46.709-35.264 0-63.954-28.658-63.954-63.883 0-4.668.508-9.284 1.497-13.786h21.315c-1.479 4.4-2.242 9.037-2.242 13.786 0 23.903 19.462 43.348 43.384 43.348 17.416 0 33.038-10.506 39.811-26.152zm-11.714-99.687-13.571 59.53c-.009.043-.021.086-.03.13l-3.482 15.275c-.023.103-.045.207-.064.312-1.56 8.477-7.852 9.688-11.319 9.073-1.978-.353-8.278-2.266-6.637-12.109l1.974-9.347c.026-.114.051-.228.073-.344l18.248-86.401h20.253l-5.364 23.531c-.03.117-.059.233-.081.35zm36.444 53.59c-.035 0-.069 0-.104 0h-33.054l9.35-41.014c11.484 6.87 20.073 16.619 25.087 28.586.016.037.031.074.047.111 1.587 3.622 2.952 9.024 3.27 12.38zm-20.312-56.352 4.815-21.119h70.97l-45.434 49.066c-7.171-11.746-17.474-21.233-30.351-27.947zm37.269 42.723 59.116-63.843h79.97l-8.595 11.793h-46.039c-4.174 0-7.558 3.383-7.558 7.557s3.384 7.557 7.558 7.557h35.023l-19.437 26.668c-5.383-5.604-12.925-8.971-21.125-8.971-8.018 0-15.515 3.144-21.094 8.837-4.999 5.072-7.996 11.768-8.439 18.851-.113 1.79-.046 3.567.158 5.321h-46.779c-.172-4.984-1.559-10.157-2.759-13.77zm75.077 13.771h-10.225c-.345-1.415-.481-2.887-.387-4.375.215-3.448 1.678-6.711 4.134-9.203 2.728-2.783 6.39-4.317 10.313-4.317 5.027 0 9.415 2.454 11.936 6.465l-4.269 5.857c-3.594 4.943-4.467 5.573-11.502 5.573zm108.588-92.728h-120.293v-44.64c14.457-20.767 61.311-26.848 93.437-18.048 8.075 2.212 26.857 8.775 26.857 21.91v40.778zm7.999-105.968-37.389-2.186c-5.591-.327-7.459-4.136-7.359-7.297.058-1.837.863-6.098 7.089-6.098h.06l49.77.171c3.469.016 6.607 2.078 7.993 5.256.105.24.222.476.351.703.65 1.147.979 2.568.979 4.223v39.168 45.527 38.232c0 1.107.243 2.201.712 3.202l10.826 23.138c.094.229.198.451.312.667l34.747 74.259c2.004 4.279 1.263 7.172-2.265 8.846-2.452 1.162-6.754 1.48-8.199-1.527l-50.51-105.198v-7.561-48.335-57.645c-.001-4.003-3.122-7.312-7.117-7.545zm83.793 218.464h4.423c.964 2.874 1.463 5.881 1.463 8.99 0 15.568-12.669 28.234-28.241 28.234-15.587 0-28.269-12.666-28.269-28.234 0-3.093.506-6.101 1.484-8.99h2.451l6.897 14.365c3.636 7.566 10.813 10.937 18.065 10.937 3.528 0 7.073-.798 10.237-2.298 7.724-3.664 13.82-12.103 11.49-23.004zm-96.05-16.392c-.738-1.052-1.252-4.867 1.506-12.489 3.885-10.729 11.042-20.04 20.886-27.288l19.712 41.055h-37.022c-2.582 0-4.529-.49-5.082-1.278zm73.695 89.266c-35.264 0-63.953-28.658-63.953-63.883 0-3.04.214-6.046.628-8.99h20.896c-.622 2.934-.955 5.933-.955 8.99 0 23.903 19.462 43.348 43.384 43.348 23.907 0 43.356-19.446 43.356-43.348 0-3.064-.328-6.063-.944-8.99h20.88c.422 2.989.662 5.994.662 8.99 0 35.225-28.69 63.883-63.954 63.883zm74.907-89.459c-.604.921-2.596 1.471-5.328 1.471h-53.547l-26.351-56.317c31.495-3.447 68.501 7.997 83.649 42.988 2.421 5.573 2.619 10.268 1.577 11.858z" data-original="#000000" class="active-path" style="fill:#000000" data-old_color="#000000"/></g></g> </svg>
